<svg width="2017" height="2727" viewBox="0 0 2017 2727" fill="none" xmlns="http://www.w3.org/2000/svg">
<path d="M1531 1044H1666C1750.5 1044 1819 975.5 1819 891V663.636C1770.51 632.859 1709.84 614.175 1635 609.303V644C1635 664.435 1618.43 681 1598 681C1577.57 681 1561 664.435 1561 644V609.5C1486.67 614.338 1426.4 632.57 1378 663V891C1378 975.5 1446.5 1044 1531 1044Z" fill="#D9D9D9" stroke="#686868" stroke-width="6"/>
<rect x="1572" y="497" width="51" height="161" rx="25.5" fill="#D9D9D9" stroke="#686868" stroke-width="6"/>
<path d="M1378 524C1378 439.5 1446.5 371 1531 371H1589V479.102C1572.91 483.122 1561 497.67 1561 515V570.375C1486.57 575.366 1426.27 593.996 1378 624.636V524Z" fill="black" stroke="#686868" stroke-width="6"/>
<path d="M1819 524C1819 439.5 1750.5 371 1666 371H1608L1608 479.367C1623.58 483.73 1635 498.031 1635 515V566.734C1709.73 571.453 1770.38 593.434 1819 624V524Z" fill="#D9D9D9" stroke="#686868" stroke-width="6"/>
<path d="M1530 2274H1665C1749.5 2274 1818 2205.5 1818 2121V1893.64C1769.51 1862.86 1708.84 1844.17 1634 1839.3V1874C1634 1894.43 1617.43 1911 1597 1911C1576.57 1911 1560 1894.43 1560 1874V1839.5C1485.67 1844.34 1425.4 1862.57 1377 1893V2121C1377 2205.5 1445.5 2274 1530 2274Z" fill="#D9D9D9" stroke="#686868" stroke-width="6"/>
<rect x="1571" y="1727" width="51" height="161" rx="25.5" fill="black" stroke="#686868" stroke-width="6"/>
<path d="M1377 1754C1377 1669.5 1445.5 1601 1530 1601H1588V1709.1C1571.91 1713.12 1560 1727.67 1560 1745V1800.37C1485.57 1805.37 1425.27 1824 1377 1854.64V1754Z" fill="#D9D9D9" stroke="#686868" stroke-width="6"/>
<path d="M1818 1754C1818 1669.5 1749.5 1601 1665 1601H1607L1607 1709.37C1622.58 1713.73 1634 1728.03 1634 1745V1796.73C1708.73 1801.45 1769.38 1823.43 1818 1854V1754Z" fill="black" stroke="#686868" stroke-width="6"/>
<path d="M863.785 1417L955.52 1507.32L1141.91 1690.82L1120.59 1892.77L1098.9 2093.71L1077.29 2293.98L870.787 2315.96L669.136 2337.43L468.933 2358.74L376.123 2267.31L192 2085.94L213.746 1884.69L235.489 1683.48L257.522 1479.58L456.146 1459.04L659.316 1438.02L863.785 1417Z" fill="#D9D9D9"/>
<path d="M468.933 2358.74L532.836 1752.76M468.933 2358.74L376.123 2267.31M468.933 2358.74L669.136 2337.43M1120.59 1892.77L511.467 1955.4L235.489 1683.48M1120.59 1892.77L1141.91 1690.82M1120.59 1892.77L1098.9 2093.71M1098.9 2093.71L490.189 2157.17L213.746 1884.69M1098.9 2093.71L1077.29 2293.98L669.136 2337.43M532.836 1752.76L257.522 1479.58M532.836 1752.76L734.302 1732.27M1141.91 1690.82L863.785 1417L659.316 1438.02M1141.91 1690.82L935.768 1711.79M1049.49 1600L441.661 1662.29L376.123 2267.31M958.487 1507L350.299 1571.64L284.768 2177.31M257.522 1479.58L235.489 1683.48M257.522 1479.58L456.146 1459.04M935.768 1711.79L870.785 2315.98M935.768 1711.79L659.316 1438.02M935.768 1711.79L734.302 1732.27M734.302 1732.27L669.136 2337.43M734.302 1732.27L456.146 1459.04M376.123 2267.31L192 2085.94L213.746 1884.69M213.746 1884.69L235.489 1683.48M456.146 1459.04L659.316 1438.02" stroke="#686868" stroke-width="6"/>
<path d="M287.385 947.439L309.032 746.148L330.803 544.933L352.799 341.639L551.751 320.494L753.719 299.029L958.02 277.315L901.368 879.722L287.385 947.439Z" fill="#444444"/>
<path d="M194.5 855.94L216.246 654.694L237.989 453.484L260.022 249.583L458.646 229.035L661.816 208.018L866.285 187L958.02 277.315L753.719 299.029L551.751 320.494L352.799 341.639L330.803 544.933L309.032 746.148L287.385 947.439L194.5 855.94Z" fill="#D9D9D9"/>
<path d="M309.032 746.148L287.385 947.439M309.032 746.148L330.803 544.933M309.032 746.148L216.246 654.694M287.385 947.439L901.368 879.722L958.02 277.315M287.385 947.439L194.5 855.94L216.246 654.694M352.799 341.639L330.803 544.933M352.799 341.639L551.751 320.494M352.799 341.639L260.022 249.583M330.803 544.933L237.989 453.484M551.751 320.494L753.719 299.029M551.751 320.494L458.646 229.035M753.719 299.029L958.02 277.315M753.719 299.029L661.816 208.018M958.02 277.315L866.285 187L661.816 208.018M216.246 654.694L237.989 453.484M260.022 249.583L237.989 453.484M260.022 249.583L458.646 229.035M458.646 229.035L661.816 208.018" stroke="#686868" stroke-width="6"/>
<path d="M283 766L192 676.5L342.767 514.75L493.534 353L645 190.5L747.591 282L585.561 443L434.281 604.5L283 766Z" fill="#D9D9D9"/>
<path d="M434.281 604.5L585.561 443L747.591 282L1144.5 636L690.5 1125L283 766L434.281 604.5Z" fill="#444444"/>
<path d="M283 766L192 676.5L342.767 514.75M283 766L434.281 604.5M283 766L690.5 1125L1144.5 636L747.591 282M493.534 353L645 190.5L747.591 282M493.534 353L585.561 443M493.534 353L342.767 514.75M585.561 443L434.281 604.5M585.561 443L747.591 282M342.767 514.75L434.281 604.5" stroke="#686868" stroke-width="6"/>
<path d="M471.433 1128.74L378.623 1037.31L400.407 836.212L422.205 634.989L444.161 432.291L644.645 411.745L846.637 391.045L1052.16 370L1144.41 460.825L1123.09 662.772L1101.4 863.712L1079.79 1063.98L873.287 1085.96L671.636 1107.43L471.433 1128.74Z" fill="#D9D9D9"/>
<path d="M471.433 1128.74L535.336 522.757M471.433 1128.74L378.623 1037.31L400.407 836.212M471.433 1128.74L671.636 1107.43M1123.09 662.772L513.967 725.4L422.205 634.989M1123.09 662.772L1144.41 460.825M1123.09 662.772L1101.4 863.712M1101.4 863.712L492.69 927.169L400.407 836.212M1101.4 863.712L1079.79 1063.98L671.636 1107.43M535.336 522.757L736.802 502.272M535.336 522.757L444.161 432.291M1144.41 460.825L938.268 481.786M1144.41 460.825L1052.16 370L846.637 391.045M444.161 432.291L422.205 634.989M444.161 432.291L644.645 411.745M938.268 481.786L873.285 1085.98M938.268 481.786L736.802 502.272M938.268 481.786L846.637 391.045M736.802 502.272L671.636 1107.43M736.802 502.272L644.645 411.745M400.407 836.212L422.205 634.989M644.645 411.745L846.637 391.045" stroke="#686868" stroke-width="6"/>
<path d="M876 1153.95C720.204 1233.29 542.301 1231.56 411.402 1132.92C215.924 985.618 199.293 677.983 374.256 445.798C549.22 213.614 849.522 144.805 1045 292.108C1084.47 321.849 1116.65 358.127 1141.43 399M1141.43 399L1139 324M1141.43 399L1072.5 359.5" stroke="black" stroke-width="16"/>
<path d="M339.5 2380.21C248.906 2395.21 192 2416.89 192 2441C192 2486.29 392.8 2523 640.5 2523C888.2 2523 1089 2486.29 1089 2441C1089 2414.99 1022.79 2391.82 919.5 2376.79M919.5 2376.79L974 2410M919.5 2376.79L983.5 2363" stroke="black" stroke-width="16"/>
</svg>
